<?xml version="1.0" encoding="utf-8"?>
<!-- Generator: Adobe Illustrator 27.4.0, SVG Export Plug-In . SVG Version: 6.00 Build 0)  -->
<svg version="1.1" xmlns="http://www.w3.org/2000/svg" xmlns:xlink="http://www.w3.org/1999/xlink" x="0px" y="0px"
	 viewBox="0 0 109.06 176.46" style="enable-background:new 0 0 109.06 176.46;" xml:space="preserve">
<style type="text/css">
	.st0{fill:#FFFFFF;}
	.st1{fill:#77625A;}
	.st2{fill:#60463E;}
	.st3{fill:#6DAA46;}
	.st4{fill:#95CE32;}
	.st5{fill:#558E30;}
	.st6{fill:#95999B;}
	.st7{fill:#5C6266;}
	.st8{fill:#5B534F;}
	.st9{fill:#ADADAD;}
</style>
<g id="BACKGROUND">
	<rect x="-88.43" y="-275.99" class="st0" width="500" height="500"/>
</g>
<g id="OBJECTS">
	<g>
		<g>
			<path class="st1" d="M28.88,48.3c0,0,29.27,32.94,6.89,74.89h36.73c0,0-25.54-59.39,17.79-103.86c0,0-28.69,12.05-39.59,44.18
				C50.68,63.5,46.66,53.75,28.88,48.3z"/>
			<path class="st3" d="M20.3,44.72c-1.6,1.88-2.14,4.56-1.16,7.02c0.98,2.46,3.21,4.03,5.66,4.3c1.6-1.88,2.14-4.56,1.16-7.02
				C24.99,46.57,22.76,44.99,20.3,44.72z"/>
			<path class="st5" d="M91.15,8.44c-1.03,2.25-0.81,4.97,0.8,7.07c1.61,2.09,4.19,3,6.62,2.59c1.03-2.25,0.81-4.97-0.8-7.07
				C96.16,8.94,93.58,8.03,91.15,8.44z"/>
			<path class="st5" d="M83.24,37.9c-2.86,0.31-5.46,2.15-6.59,5.01c-1.14,2.86-0.51,5.98,1.36,8.17c2.86-0.31,5.46-2.15,6.59-5.01
				C85.74,43.2,85.11,40.08,83.24,37.9z"/>
			<path class="st3" d="M73.04,12.27c-2.65,1.11-4.61,3.62-4.89,6.68c-0.27,3.06,1.22,5.87,3.63,7.44c2.65-1.11,4.61-3.62,4.89-6.68
				C76.94,16.65,75.45,13.83,73.04,12.27z"/>
			<path class="st3" d="M73.45,4.59c0.89,2.57,3.14,4.58,6.01,5.02c2.88,0.44,5.62-0.79,7.25-2.98c-0.89-2.57-3.14-4.58-6.01-5.02
				C77.82,1.17,75.08,2.41,73.45,4.59z"/>
			<path class="st3" d="M43.94,7.44c-0.74,2.78,0.05,5.86,2.31,7.95c2.26,2.09,5.4,2.62,8.11,1.67c0.74-2.78-0.05-5.86-2.31-7.95
				C49.79,7.02,46.66,6.48,43.94,7.44z"/>
			<path class="st3" d="M80.25,54.24c-0.82,1.79-0.65,3.97,0.64,5.64c1.29,1.67,3.34,2.4,5.28,2.06c0.82-1.79,0.65-3.97-0.64-5.64
				C84.24,54.63,82.19,53.91,80.25,54.24z"/>
			<path class="st3" d="M40.54,6.74C38.67,6.11,36.52,6.51,35,7.96c-1.53,1.45-2.03,3.57-1.5,5.47c1.87,0.63,4.01,0.23,5.54-1.23
				C40.56,10.76,41.07,8.64,40.54,6.74z"/>
			<path class="st3" d="M46.19,47.98c-0.82,1.79-0.65,3.97,0.64,5.64c1.29,1.67,3.34,2.4,5.28,2.06c0.82-1.79,0.65-3.97-0.64-5.64
				C50.19,48.37,48.13,47.65,46.19,47.98z"/>
			<path class="st3" d="M31.39,39.78c-1,2.19-0.79,4.85,0.78,6.89c1.57,2.04,4.08,2.93,6.46,2.52c1-2.19,0.79-4.85-0.78-6.89
				C36.28,40.26,33.77,39.37,31.39,39.78z"/>
			<path class="st4" d="M32.16,87.51c0.9,1.75,2.71,2.97,4.82,2.99c2.11,0.03,3.95-1.14,4.9-2.87c-0.9-1.75-2.71-2.97-4.82-2.99
				C34.95,84.61,33.1,85.78,32.16,87.51z"/>
			<path class="st3" d="M66.8,76.39c-0.82,1.79-0.65,3.97,0.64,5.64c1.29,1.67,3.34,2.4,5.28,2.06c0.82-1.79,0.65-3.97-0.64-5.64
				C70.8,76.78,68.74,76.06,66.8,76.39z"/>
			<path class="st3" d="M9.8,54.24c-0.82,1.79-0.65,3.97,0.64,5.64c1.28,1.67,3.34,2.4,5.28,2.06c0.82-1.79,0.65-3.97-0.64-5.64
				S11.75,53.91,9.8,54.24z"/>
			<path class="st5" d="M3.08,58.34c-1.31,2.27-1.36,5.18,0.14,7.56c1.49,2.38,4.13,3.6,6.75,3.4c1.31-2.27,1.36-5.18-0.14-7.56
				C8.34,59.36,5.7,58.14,3.08,58.34z"/>
			<path class="st5" d="M82.93,73.59c-1.89-0.54-4.02-0.05-5.48,1.47c-1.46,1.52-1.87,3.66-1.25,5.53c1.89,0.54,4.02,0.05,5.48-1.47
				C83.14,77.61,83.55,75.46,82.93,73.59z"/>
			<path class="st5" d="M10.9,46.5c2.09,0.67,4.47,0.18,6.14-1.46c1.67-1.64,2.2-4.01,1.57-6.11c-2.09-0.67-4.47-0.18-6.14,1.46
				C10.79,42.03,10.27,44.39,10.9,46.5z"/>
			<path class="st4" d="M3,52.18c1.99-0.93,3.41-2.89,3.52-5.24c0.12-2.34-1.1-4.44-2.99-5.56c-1.99,0.93-3.41,2.89-3.52,5.24
				C-0.11,48.96,1.11,51.06,3,52.18z"/>
			<path class="st3" d="M44.18,44.61c2.21-1.32,3.62-3.79,3.47-6.54c-0.15-2.75-1.83-5.05-4.17-6.12c-2.21,1.32-3.62,3.79-3.47,6.54
				C40.17,41.24,41.85,43.54,44.18,44.61z"/>
			<path class="st5" d="M104.94,43.43c2.33-1.1,3.99-3.41,4.11-6.16c0.13-2.75-1.31-5.2-3.53-6.51c-2.33,1.1-3.99,3.41-4.11,6.16
				C101.29,39.67,102.73,42.12,104.94,43.43z"/>
			<path class="st3" d="M94.6,38.72c1.95-2.38,2.56-5.73,1.28-8.76c-1.27-3.03-4.09-4.95-7.15-5.22c-1.95,2.38-2.56,5.73-1.28,8.76
				C88.72,36.53,91.54,38.45,94.6,38.72z"/>
			<path class="st4" d="M87.01,74.08c2.56-0.28,4.88-1.92,5.9-4.48c1.02-2.56,0.45-5.35-1.22-7.3c-2.56,0.28-4.88,1.92-5.9,4.48
				C84.78,69.33,85.34,72.12,87.01,74.08z"/>
			<path class="st4" d="M53.17,45.48c2.56-0.28,4.88-1.92,5.9-4.48c1.02-2.56,0.45-5.35-1.22-7.31c-2.56,0.28-4.88,1.92-5.9,4.48
				C50.94,40.74,51.5,43.53,53.17,45.48z"/>
			<path class="st3" d="M74.31,72.72c3.17-1.73,5.3-5.11,5.25-8.97c-0.05-3.86-2.28-7.18-5.49-8.83c-3.17,1.73-5.3,5.11-5.25,8.97
				C68.88,67.75,71.1,71.07,74.31,72.72z"/>
			<path class="st5" d="M36.11,31.32c3.61-0.12,7.03-2.18,8.73-5.65c1.69-3.47,1.2-7.44-0.93-10.35c-3.61,0.12-7.03,2.18-8.73,5.65
				C33.49,24.44,33.98,28.41,36.11,31.32z"/>
			<path class="st4" d="M18.76,71.18c2.78-0.14,5.39-1.77,6.65-4.46c1.26-2.7,0.83-5.74-0.85-7.96c-2.78,0.14-5.39,1.77-6.65,4.46
				S17.08,68.96,18.76,71.18z"/>
			<path class="st3" d="M95.17,60.98c3.61-0.01,7.1-1.95,8.9-5.37c1.8-3.42,1.44-7.4-0.6-10.38c-3.61,0.01-7.1,1.95-8.9,5.37
				C92.77,54.02,93.14,58,95.17,60.98z"/>
			<path class="st4" d="M20.94,29.14c3.61-0.01,7.1-1.95,8.9-5.37c1.8-3.42,1.44-7.4-0.6-10.38c-3.61,0.01-7.1,1.95-8.9,5.37
				C18.54,22.18,18.9,26.16,20.94,29.14z"/>
			<path class="st3" d="M27.02,85.67c0.61-3.56-0.72-7.33-3.78-9.68c-3.06-2.36-7.04-2.67-10.33-1.17
				c-0.61,3.56,0.72,7.33,3.78,9.68C19.75,86.85,23.74,87.17,27.02,85.67z"/>
			<path class="st5" d="M38.45,81.39c1.92-3.06,2.14-7.05,0.21-10.39s-5.49-5.16-9.1-5.03c-1.92,3.06-2.14,7.05-0.21,10.39
				C31.29,79.7,34.84,81.52,38.45,81.39z"/>
			<path class="st4" d="M49.65,4.52c0.85,1.97,2.73,3.41,5.01,3.59c2.28,0.18,4.37-0.95,5.51-2.76c-0.85-1.97-2.73-3.41-5.01-3.59
				C52.88,1.58,50.8,2.71,49.65,4.52z"/>
			<path class="st5" d="M61.89,2.78c0.85,1.97,2.73,3.41,5.01,3.59c2.28,0.18,4.37-0.95,5.51-2.76c-0.85-1.97-2.73-3.41-5.01-3.59
				C65.12-0.16,63.03,0.97,61.89,2.78z"/>
			<path class="st5" d="M64.42,35.43c1.8-1.17,2.91-3.26,2.7-5.54s-1.67-4.15-3.64-4.97c-1.8,1.16-2.91,3.26-2.7,5.54
				C60.98,32.74,62.45,34.6,64.42,35.43z"/>
			<path class="st4" d="M79.23,17.84c1.79,1.48,4.32,1.94,6.61,0.99c2.29-0.96,3.75-3.08,3.96-5.39c-1.79-1.48-4.32-1.94-6.61-0.99
				C80.89,13.41,79.44,15.53,79.23,17.84z"/>
			<path class="st3" d="M100.85,30.17c2.38-0.22,4.55-1.71,5.53-4.07c0.98-2.36,0.5-4.95-1.02-6.79c-2.38,0.22-4.55,1.71-5.53,4.07
				C98.85,25.74,99.33,28.34,100.85,30.17z"/>
			<path class="st4" d="M86.68,50.38c2.07,0.56,4.37-0.02,5.93-1.7c1.56-1.68,1.97-4.01,1.26-6.03c-2.07-0.56-4.37,0.02-5.93,1.7
				C86.38,46.02,85.98,48.36,86.68,50.38z"/>
			<path class="st4" d="M58.1,18.21c2.7,0.73,5.71-0.03,7.74-2.22c2.04-2.19,2.57-5.24,1.65-7.89c-2.7-0.73-5.71,0.03-7.74,2.22
				C57.71,12.52,57.18,15.57,58.1,18.21z"/>
			<path class="st3" d="M21.08,38.55c2.4,1.43,5.5,1.51,8.05-0.04c2.55-1.56,3.89-4.35,3.71-7.14c-2.4-1.43-5.5-1.51-8.05,0.04
				C22.24,32.97,20.91,35.76,21.08,38.55z"/>
			<path class="st3" d="M9.24,36.52c2.78,0.26,5.62-0.98,7.26-3.48c1.64-2.5,1.66-5.59,0.31-8.04c-2.78-0.26-5.62,0.98-7.26,3.48
				C7.9,30.98,7.89,34.07,9.24,36.52z"/>
			<path class="st3" d="M50.14,31.18c2.78-0.34,5.28-2.15,6.35-4.95c1.07-2.79,0.43-5.82-1.41-7.92c-2.78,0.34-5.28,2.15-6.35,4.95
				C47.66,26.05,48.3,29.07,50.14,31.18z"/>
			<path class="st2" d="M35.76,123.18h24.09C56.19,61.1,28.88,48.3,28.88,48.3S58.14,81.24,35.76,123.18z"/>
		</g>
		<g>
			<g>
				<path class="st7" d="M8.79,142.67c0-0.05,0.01-0.1,0.04-0.15c0.03-0.04,0.04-0.1,0.04-0.17c0-0.04,0-0.08-0.01-0.12
					c-0.01-0.04-0.01-0.08-0.01-0.12c0-0.25,0.06-0.45,0.19-0.61s0.19-0.33,0.21-0.5c0.02-0.11,0.08-0.2,0.19-0.28
					c0.11-0.08,0.23-0.28,0.37-0.6c0.28-0.32,0.57-0.6,0.86-0.84c0.29-0.24,0.62-0.41,1-0.52c0.07-0.02,0.14-0.04,0.2-0.08
					s0.12-0.06,0.17-0.08c0.09-0.04,0.2-0.07,0.33-0.11c0.13-0.04,0.23-0.05,0.31-0.05c0.04,0,0.07,0.02,0.11,0.05
					c0.04,0.04,0.07,0.05,0.11,0.05l0.05-0.11c0.04-0.07,0.09-0.11,0.16-0.11c0.04,0,0.07,0,0.09,0.01
					c0.03,0.01,0.06,0.01,0.09,0.01l0.05-0.03c0.04,0,0.08,0,0.13,0.01s0.11,0.01,0.16,0.01c0.04,0,0.07,0,0.09-0.01
					c0.03-0.01,0.06-0.01,0.09-0.01c0.11,0,0.2,0,0.29,0.01c0.09,0.01,0.18,0.01,0.27,0.01c0.14,0,0.33,0.04,0.57,0.13
					c0.24,0.09,0.44,0.17,0.6,0.24c0.21,0.09,0.4,0.2,0.56,0.32c0.16,0.12,0.31,0.2,0.45,0.24c0.42,0.12,0.79,0.34,1.09,0.65
					s0.55,0.66,0.74,1.06c0.19,0.4,0.35,0.81,0.45,1.25c0.11,0.43,0.17,0.84,0.19,1.21c0,0.09-0.03,0.17-0.08,0.25
					c-0.05,0.08-0.08,0.16-0.08,0.23c0,0.05,0.03,0.1,0.08,0.15c0.05,0.04,0.08,0.09,0.08,0.15c0,0.05-0.01,0.1-0.03,0.15
					c-0.02,0.04-0.03,0.1-0.03,0.17c0,0.3-0.07,0.6-0.21,0.9c-0.14,0.3-0.24,0.5-0.29,0.58c-0.09,0.16-0.2,0.29-0.35,0.38
					c-0.14,0.1-0.26,0.28-0.35,0.54c-0.04,0.07-0.11,0.16-0.23,0.27c-0.12,0.11-0.24,0.21-0.39,0.32c-0.14,0.11-0.27,0.2-0.4,0.28
					c-0.12,0.08-0.2,0.13-0.24,0.15c-0.35,0.14-0.71,0.26-1.08,0.36c-0.36,0.1-0.76,0.15-1.18,0.15c-0.3,0-0.54,0.01-0.73,0.04
					s-0.46,0-0.81-0.09c-0.23-0.05-0.47-0.12-0.73-0.21c-0.26-0.09-0.5-0.19-0.74-0.29s-0.46-0.23-0.66-0.37
					c-0.2-0.14-0.36-0.29-0.46-0.45c-0.18-0.09-0.33-0.23-0.46-0.41s-0.22-0.33-0.25-0.44c-0.04-0.11-0.09-0.2-0.16-0.29
					c-0.07-0.09-0.11-0.16-0.11-0.21c-0.04-0.35-0.13-0.69-0.28-1c-0.15-0.31-0.23-0.64-0.23-1c0-0.27,0.03-0.49,0.08-0.66
					C8.76,142.92,8.79,142.78,8.79,142.67z M14.07,146.55c0.09,0,0.18,0,0.27,0.01c0.09,0.01,0.17,0.01,0.24,0.01
					c0.12,0,0.29-0.04,0.5-0.12c0.21-0.08,0.41-0.18,0.6-0.31c0.19-0.12,0.35-0.26,0.49-0.4c0.14-0.14,0.21-0.28,0.21-0.42
					c0-0.09,0.03-0.15,0.08-0.19c0.05-0.04,0.1-0.07,0.13-0.11l0.13-0.29c-0.02-0.02-0.03-0.07-0.03-0.16l0.11-0.43l0.24-0.61v-0.35
					c-0.14-0.11-0.21-0.29-0.21-0.56c0-0.04-0.01-0.07-0.03-0.11c-0.02-0.04-0.03-0.07-0.03-0.11c0-0.04-0.02-0.09-0.05-0.16
					c-0.04-0.07-0.05-0.12-0.05-0.16c-0.02-0.09-0.06-0.2-0.13-0.33c-0.07-0.13-0.16-0.26-0.25-0.37c-0.1-0.12-0.2-0.22-0.31-0.31
					c-0.11-0.09-0.2-0.13-0.29-0.13c-0.05,0-0.15-0.04-0.29-0.11c-0.14-0.07-0.29-0.15-0.45-0.24c-0.16-0.09-0.32-0.17-0.48-0.24
					c-0.16-0.07-0.27-0.11-0.35-0.11c-0.07,0-0.16,0.01-0.28,0.04c-0.12,0.03-0.23,0.05-0.36,0.07c-0.04,0-0.06,0-0.07-0.01
					c-0.01-0.01-0.03-0.01-0.07-0.01c-0.14,0-0.28,0.05-0.42,0.15c-0.14,0.1-0.27,0.15-0.4,0.15c-0.07,0-0.12-0.04-0.16-0.13
					c-0.09,0.05-0.19,0.15-0.32,0.28s-0.25,0.27-0.37,0.4c-0.12,0.13-0.27,0.31-0.45,0.52c0,0.25-0.08,0.48-0.24,0.69
					c-0.16,0.21-0.24,0.46-0.24,0.74c0,0.12,0.01,0.26,0.04,0.41c0.03,0.15,0.01,0.27-0.04,0.36c0.02,0.16,0.06,0.35,0.13,0.56
					c0.07,0.21,0.16,0.42,0.27,0.64c0.11,0.21,0.23,0.41,0.38,0.6c0.15,0.19,0.31,0.33,0.49,0.44c0.04,0.04,0.08,0.07,0.13,0.09
					c0.05,0.03,0.1,0.04,0.13,0.04c0.28,0,0.55,0.05,0.81,0.15c0.26,0.1,0.52,0.15,0.78,0.15c0.04,0,0.07,0,0.09-0.01
					C14.01,146.55,14.04,146.55,14.07,146.55z M19.95,150.59c0.11,0.02,0.3,0.07,0.57,0.16c0.27,0.09,0.47,0.21,0.6,0.37
					c0.97,0.44,1.66,1.16,2.05,2.15c0.04,0.05,0.06,0.11,0.08,0.16c0.02,0.05,0.04,0.12,0.08,0.19c0.04,0.11,0.08,0.2,0.12,0.29
					c0.04,0.09,0.08,0.17,0.09,0.24l0.03,0.4c0.02,0.23,0.01,0.46-0.03,0.7c-0.04,0.24-0.07,0.48-0.11,0.73
					c0,0.21-0.07,0.46-0.2,0.76c-0.13,0.29-0.31,0.57-0.53,0.84c-0.22,0.27-0.47,0.51-0.74,0.73c-0.27,0.22-0.54,0.37-0.81,0.44
					c-0.14,0.11-0.3,0.22-0.48,0.33c-0.18,0.12-0.35,0.15-0.5,0.09c-0.43,0.25-0.77,0.37-1.04,0.36c-0.27-0.01-0.49-0.03-0.66-0.07
					c-0.05,0.02-0.14,0.03-0.27,0.03c-0.07,0-0.14-0.01-0.2-0.03c-0.06-0.02-0.15-0.03-0.25-0.03c-0.04,0-0.13-0.02-0.28-0.07
					c-0.15-0.04-0.31-0.09-0.46-0.15c-0.16-0.05-0.31-0.12-0.44-0.19c-0.13-0.07-0.2-0.13-0.2-0.19c-0.02-0.04-0.07-0.07-0.16-0.11
					c-0.09-0.04-0.19-0.08-0.29-0.12c-0.11-0.04-0.21-0.1-0.32-0.17c-0.11-0.07-0.19-0.17-0.24-0.29c-0.04-0.04-0.07-0.08-0.09-0.15
					c-0.03-0.06-0.06-0.11-0.09-0.15c-0.18-0.18-0.34-0.37-0.49-0.58s-0.27-0.45-0.37-0.72c-0.1-0.27-0.16-0.57-0.19-0.9
					c-0.03-0.34-0.01-0.73,0.04-1.17c0-0.05-0.01-0.11-0.03-0.17c-0.02-0.06-0.03-0.13-0.03-0.2c0-0.18,0.05-0.35,0.15-0.53
					c0.1-0.18,0.22-0.35,0.36-0.52c0.14-0.17,0.28-0.34,0.41-0.52c0.13-0.18,0.24-0.35,0.33-0.53c0.14-0.14,0.29-0.3,0.44-0.48
					c0.15-0.18,0.35-0.34,0.6-0.5c0.25-0.16,0.56-0.29,0.94-0.4c0.38-0.11,0.88-0.16,1.5-0.16c0.19,0,0.38,0.01,0.56,0.04
					C19.56,150.55,19.75,150.57,19.95,150.59z M19.71,152.47c-0.09,0-0.17,0-0.24,0.01s-0.15,0.01-0.24,0.01
					c-0.12,0-0.23-0.02-0.33-0.07s-0.2-0.07-0.31-0.07c-0.07,0-0.14,0.01-0.21,0.03c-0.07,0.02-0.15,0.04-0.24,0.05
					c-0.37,0.11-0.63,0.2-0.77,0.29c-0.14,0.09-0.23,0.13-0.27,0.13c-0.09,0-0.16,0.08-0.21,0.24c-0.05,0.16-0.14,0.23-0.27,0.21
					c0.02,0.05,0.03,0.12,0.03,0.19c0,0.07-0.03,0.16-0.08,0.28s-0.11,0.23-0.17,0.35s-0.12,0.22-0.17,0.32
					c-0.05,0.1-0.09,0.17-0.11,0.23c0,0.05,0.03,0.11,0.08,0.17c0.05,0.06,0.08,0.11,0.08,0.15s-0.01,0.08-0.03,0.13
					c-0.02,0.05-0.03,0.1-0.03,0.13s0.01,0.08,0.04,0.13c0.03,0.05,0.04,0.09,0.04,0.11l0.05,0.19c0.05,0.18,0.13,0.4,0.24,0.68
					c0.11,0.27,0.27,0.46,0.5,0.57c0.18,0.21,0.42,0.37,0.72,0.46c0.3,0.1,0.63,0.15,0.98,0.15c0.27-0.04,0.53-0.1,0.8-0.2
					s0.47-0.22,0.61-0.36c0.11-0.07,0.21-0.16,0.31-0.27c0.1-0.11,0.22-0.2,0.36-0.27l0.19-0.19c0.21-0.39,0.32-0.79,0.32-1.21
					s-0.07-0.8-0.21-1.16c-0.14-0.35-0.34-0.66-0.6-0.92C20.31,152.73,20.03,152.56,19.71,152.47z M21.51,144.56
					c0.44,0.04,0.8,0.12,1.08,0.24c0.27,0.12,0.43,0.36,0.46,0.72c0,0.07,0.05,0.15,0.15,0.23c0.1,0.08,0.15,0.22,0.15,0.41
					c0.04,1.08-0.3,1.65-1.01,1.7c-0.05,0-0.12,0.03-0.19,0.09c-0.07,0.06-0.15,0.09-0.24,0.09c-0.09,0-0.17,0.02-0.25,0.05
					c-0.08,0.04-0.16,0.05-0.25,0.05c-0.05,0-0.18-0.01-0.37-0.03c-0.2-0.02-0.39-0.07-0.6-0.16c-0.2-0.09-0.39-0.22-0.56-0.38
					s-0.25-0.4-0.25-0.7c-0.02-0.09-0.02-0.18-0.01-0.27s0.01-0.18,0.01-0.27s0.01-0.19,0.03-0.29c0.05-0.53,0.25-0.91,0.58-1.14
					C20.57,144.67,21,144.56,21.51,144.56z M23.29,141.61c-0.04,0.21-0.12,0.41-0.27,0.58c-0.14,0.18-0.31,0.32-0.5,0.44
					c-0.2,0.12-0.4,0.21-0.61,0.28s-0.41,0.11-0.58,0.11c-0.25-0.04-0.51-0.11-0.8-0.23c-0.28-0.11-0.49-0.26-0.61-0.44
					c-0.34-0.66-0.4-1.23-0.19-1.73c0-0.07,0-0.13-0.01-0.17c-0.01-0.04-0.01-0.09-0.01-0.15c0-0.12,0.04-0.22,0.11-0.28
					c0.07-0.06,0.12-0.11,0.16-0.15c0.18-0.25,0.4-0.41,0.68-0.49c0.27-0.08,0.51-0.12,0.7-0.12c0.07,0,0.14-0.02,0.2-0.07
					c0.06-0.04,0.12-0.07,0.17-0.07c0.16,0,0.37,0.1,0.64,0.29c0.27,0.2,0.5,0.48,0.69,0.85c0.09,0.16,0.16,0.34,0.21,0.56
					S23.33,141.31,23.29,141.61z M26.16,147.27c0.07,0.12,0.11,0.28,0.11,0.48c0,0.19-0.01,0.31-0.03,0.36s-0.03,0.14-0.03,0.28
					c0,0.07,0,0.13-0.01,0.19c-0.01,0.05-0.01,0.12-0.01,0.21c0,0.32-0.11,0.57-0.33,0.76c-0.22,0.19-0.47,0.29-0.76,0.31
					c-0.28,0.02-0.54-0.08-0.78-0.28c-0.24-0.2-0.36-0.54-0.36-1c0-0.25-0.01-0.47-0.04-0.66c-0.03-0.2-0.04-0.43-0.04-0.72
					c0-0.07,0.02-0.13,0.07-0.19c0.04-0.05,0.07-0.1,0.07-0.13s-0.02-0.07-0.05-0.09c-0.04-0.03-0.05-0.06-0.05-0.09
					c0-0.07,0.02-0.12,0.07-0.16c0.04-0.04,0.07-0.1,0.07-0.19c0-0.05-0.03-0.1-0.09-0.13s-0.09-0.1-0.09-0.19
					c0-0.14,0.03-0.27,0.08-0.4c0.05-0.12,0.08-0.24,0.08-0.34c0-0.05-0.02-0.1-0.05-0.13s-0.05-0.08-0.05-0.13
					c0-0.02,0-0.08-0.01-0.17s-0.01-0.23-0.01-0.41c0-0.09,0.02-0.22,0.05-0.4c0.04-0.18,0.05-0.35,0.05-0.53
					c0-0.07-0.02-0.13-0.07-0.19c-0.04-0.05-0.06-0.11-0.04-0.16l0.08-0.61c-0.02-0.04-0.03-0.11-0.04-0.21
					c-0.01-0.11-0.01-0.18-0.01-0.21l0.11-0.5c0-0.11-0.02-0.21-0.07-0.31c-0.04-0.1-0.07-0.21-0.07-0.33
					c0-0.14,0.01-0.25,0.03-0.33c0.02-0.08,0.03-0.2,0.03-0.36c0-0.09,0-0.16-0.01-0.23c-0.01-0.06-0.01-0.15-0.01-0.25
					c0-0.04,0-0.09-0.01-0.16c-0.01-0.07-0.01-0.13-0.01-0.19l0.08-1.12c0.02-0.16,0.12-0.33,0.31-0.5
					c0.19-0.18,0.46-0.26,0.84-0.24c0.25,0.02,0.49,0.12,0.73,0.29c0.24,0.18,0.35,0.5,0.33,0.98v1.09c0,0.05,0,0.09-0.01,0.12
					c-0.01,0.03-0.01,0.08-0.01,0.15c0,0.09,0.01,0.18,0.03,0.27c0.02,0.09,0.03,0.2,0.03,0.32c0,0.2,0,0.37-0.01,0.52
					c-0.01,0.15-0.01,0.28-0.01,0.39l-0.05,0.45c0,0.21,0.02,0.38,0.05,0.5c0.04,0.12,0.05,0.24,0.05,0.35
					c0,0.09-0.01,0.19-0.04,0.29c-0.03,0.11-0.04,0.26-0.04,0.45v0.5c0,0.04,0.02,0.08,0.05,0.13c0.04,0.05,0.05,0.12,0.05,0.19
					c0,0.05-0.03,0.11-0.08,0.16c-0.05,0.05-0.08,0.1-0.08,0.13s0.03,0.14,0.08,0.31c0.05,0.17,0.07,0.32,0.05,0.46
					c-0.02,0.05-0.04,0.12-0.05,0.19c-0.02,0.07-0.04,0.12-0.08,0.16c0.02,0.05,0.04,0.12,0.08,0.2c0.04,0.08,0.05,0.16,0.05,0.25
					c0,0.02,0,0.04,0.01,0.07c0.01,0.03,0.01,0.06,0.01,0.09s-0.01,0.06-0.04,0.07c-0.03,0.01-0.04,0.03-0.04,0.07V147.27z"/>
				<path class="st7" d="M43.96,146.07c-0.02,0.04-0.03,0.08-0.03,0.13c0,0.04,0,0.07,0.01,0.09c0.01,0.03,0.01,0.06,0.01,0.09
					c0,0.11-0.04,0.2-0.13,0.27c0.09,0.09,0.13,0.18,0.13,0.27c0,0.09,0,0.18,0,0.27c0,0.2-0.03,0.4-0.09,0.61s-0.08,0.42-0.07,0.64
					c0,0.04-0.03,0.07-0.09,0.11c-0.06,0.04-0.1,0.09-0.12,0.16c-0.09,0.41-0.26,0.79-0.52,1.14c-0.26,0.35-0.56,0.71-0.92,1.06
					s-0.73,0.65-1.12,0.89s-0.78,0.4-1.17,0.49c-0.12-0.02-0.25,0-0.37,0.07c-0.12,0.06-0.27,0.09-0.42,0.09
					c-0.16,0-0.32-0.03-0.49-0.08c-0.17-0.05-0.34-0.08-0.52-0.08c-0.16,0-0.32,0-0.48,0.01s-0.31,0.01-0.45,0.01
					c-0.41-0.05-0.83-0.18-1.26-0.37c-0.43-0.19-0.84-0.44-1.22-0.74s-0.71-0.64-1-1.02s-0.47-0.79-0.56-1.24
					c-0.14-0.37-0.28-0.72-0.41-1.04c-0.13-0.32-0.2-0.68-0.2-1.09c0-0.58,0.09-1.15,0.27-1.69c0.18-0.54,0.43-1.04,0.74-1.5
					c0.32-0.46,0.69-0.87,1.13-1.22c0.43-0.35,0.91-0.65,1.42-0.88c0.05-0.05,0.16-0.1,0.31-0.13c0.15-0.04,0.32-0.07,0.5-0.09
					s0.37-0.05,0.56-0.07s0.35-0.03,0.49-0.03c0.18,0,0.41,0.01,0.7,0.03c0.29,0.02,0.58,0.04,0.86,0.08
					c0.51,0.05,1.04,0.23,1.59,0.52c0.55,0.29,1.13,0.82,1.75,1.58c0.04,0.14,0.12,0.24,0.25,0.3c0.13,0.06,0.2,0.14,0.2,0.23
					c0.04,0.28,0.15,0.54,0.33,0.78c0.19,0.24,0.28,0.42,0.28,0.54c0,0.04,0,0.06-0.01,0.07s-0.01,0.02-0.01,0.04
					c0,0.04,0.02,0.11,0.05,0.23C43.94,145.72,43.96,145.88,43.96,146.07z M38.67,150.35c0.04,0,0.12-0.01,0.25-0.04
					c0.13-0.03,0.27-0.06,0.41-0.09c0.14-0.04,0.27-0.07,0.38-0.11c0.12-0.04,0.17-0.06,0.17-0.08c0.53-0.28,0.99-0.72,1.38-1.32
					c0.39-0.59,0.58-1.19,0.58-1.79c0-0.04-0.01-0.07-0.04-0.09c-0.03-0.03-0.04-0.06-0.04-0.09c0-0.02,0.03-0.07,0.08-0.16
					l-0.08-0.64c-0.07-0.04-0.11-0.12-0.11-0.24c0-0.19-0.03-0.35-0.08-0.48c-0.05-0.12-0.16-0.26-0.32-0.4
					c-0.12-0.3-0.31-0.55-0.54-0.76c-0.24-0.2-0.5-0.37-0.77-0.5c-0.27-0.13-0.54-0.23-0.81-0.29c-0.27-0.06-0.5-0.1-0.69-0.12
					c-0.51,0.04-1,0.12-1.46,0.27c-0.46,0.14-0.89,0.4-1.3,0.77c-0.04,0.18-0.12,0.33-0.27,0.45c-0.14,0.12-0.25,0.28-0.32,0.48
					c-0.05,0.18-0.12,0.36-0.2,0.54c-0.08,0.19-0.19,0.36-0.33,0.52c0.07,0.09,0.12,0.19,0.13,0.3c0.02,0.12,0.03,0.24,0.03,0.39
					c0,0.28,0.03,0.52,0.09,0.7c0.06,0.19,0.12,0.4,0.17,0.65c0.09,0.39,0.28,0.7,0.57,0.94c0.29,0.24,0.62,0.48,0.97,0.73
					c0.04,0.02,0.12,0.07,0.24,0.16c0.12,0.09,0.2,0.13,0.24,0.13c0.16-0.04,0.3-0.04,0.41-0.03c0.11,0.02,0.23,0.04,0.36,0.08
					c0.12,0.04,0.25,0.07,0.39,0.09S38.48,150.37,38.67,150.35z M48.08,146.71c0,0.58-0.11,1.05-0.32,1.39
					c-0.21,0.34-0.44,0.52-0.69,0.52c-0.04,0-0.07,0-0.11-0.01c-0.04-0.01-0.07-0.01-0.11-0.01c-0.16,0.05-0.3,0.09-0.43,0.12
					c-0.12,0.03-0.24,0.05-0.35,0.07c-0.11,0.02-0.19,0.03-0.24,0.03c-0.3,0-0.57-0.12-0.8-0.36c-0.23-0.24-0.42-0.46-0.56-0.65
					c-0.07-0.04-0.12-0.09-0.15-0.17c-0.03-0.08-0.06-0.16-0.09-0.25c-0.07-0.28-0.07-0.58,0-0.88c0.07-0.3,0.19-0.57,0.36-0.81
					c0.17-0.24,0.36-0.44,0.58-0.6c0.22-0.16,0.46-0.24,0.7-0.24c0.8,0,1.36,0.19,1.69,0.56C47.91,145.78,48.08,146.21,48.08,146.71
					z M50.73,148.44c-0.02,0.09-0.03,0.16-0.03,0.2s-0.02,0.09-0.05,0.15c-0.07,0.16-0.09,0.3-0.05,0.41
					c0.04,0.12,0.06,0.23,0.08,0.33c0.04,0.12,0.04,0.22,0,0.29c-0.02,0.05-0.02,0.16-0.01,0.31c0.01,0.15,0.01,0.31,0.01,0.49
					c0,0.18,0,0.35-0.01,0.5c-0.01,0.16-0.02,0.28-0.04,0.35c-0.02,0.04-0.03,0.12-0.03,0.27s0,0.3,0.01,0.46
					c0.01,0.17,0.02,0.33,0.03,0.48c0.01,0.15,0.01,0.23,0.01,0.25c0.02,0.2,0.04,0.34,0.05,0.44c0.02,0.1,0.03,0.19,0.03,0.28
					c0,0.09,0,0.19-0.01,0.31c-0.01,0.12-0.02,0.24-0.04,0.36c0.02,0.09,0.02,0.18,0.01,0.27c-0.01,0.09-0.01,0.2-0.01,0.32
					c0.04,0.34,0.04,0.65,0.01,0.93c-0.03,0.28-0.04,0.63-0.04,1.04c0,0.12-0.02,0.25-0.07,0.38c-0.04,0.13-0.12,0.26-0.23,0.37
					c-0.11,0.12-0.25,0.2-0.44,0.25c-0.19,0.05-0.43,0.06-0.73,0.03c-0.28-0.02-0.5-0.12-0.65-0.31c-0.15-0.19-0.23-0.36-0.23-0.52
					c0-0.09,0-0.18,0.01-0.28c0.01-0.1,0-0.21-0.01-0.33c-0.04-0.09-0.03-0.15,0.01-0.19c0.04-0.04,0.05-0.1,0.01-0.19
					c-0.04-0.09-0.02-0.21,0.04-0.36s0.08-0.26,0.04-0.33c-0.05-0.14-0.09-0.27-0.12-0.37s-0.01-0.19,0.04-0.27
					c0.05-0.11,0.06-0.18,0.03-0.23c-0.04-0.04-0.05-0.11-0.05-0.2c0.02-0.23,0.02-0.45,0.01-0.66c-0.01-0.21-0.01-0.43-0.01-0.64
					c0-0.05,0-0.15,0-0.29s0-0.29,0-0.45s0-0.31,0.01-0.45s0.03-0.24,0.07-0.29c0.02-0.05,0.03-0.16,0.03-0.32s0-0.34-0.01-0.53
					c-0.01-0.19-0.02-0.38-0.03-0.56c-0.01-0.18-0.02-0.29-0.04-0.35c0.04-0.11,0.05-0.34,0.05-0.7c0-0.36,0-0.74-0.01-1.14
					c-0.01-0.4-0.01-0.77-0.01-1.1c0-0.34,0.02-0.53,0.05-0.58c-0.04-0.09-0.06-0.18-0.08-0.28c-0.02-0.1,0.02-0.19,0.11-0.28
					c0.04,0,0.04-0.03,0.03-0.08c-0.02-0.05-0.03-0.1-0.03-0.13c-0.02-0.05-0.03-0.13-0.04-0.23c-0.01-0.1-0.01-0.2-0.01-0.32
					s0-0.22,0.01-0.31c0.01-0.09,0.02-0.15,0.04-0.19c-0.09-0.14-0.12-0.27-0.11-0.39c0.02-0.12,0.04-0.24,0.08-0.38
					c0.02-0.04,0.01-0.15-0.03-0.35c-0.04-0.19-0.03-0.45,0.03-0.77c-0.11-0.14-0.13-0.28-0.07-0.42c0.06-0.14,0.08-0.27,0.04-0.37
					c-0.04-0.09-0.05-0.17-0.05-0.25c0-0.08-0.02-0.18-0.05-0.31v-0.27c0-0.07,0-0.14,0-0.2c0-0.06,0.01-0.11,0.03-0.15
					c0.02-0.05,0.04-0.11,0.05-0.17c0.02-0.06,0.02-0.11,0-0.15c-0.09-0.2-0.12-0.37-0.09-0.53c0.03-0.16,0.07-0.31,0.12-0.45
					c0.04-0.04,0.04-0.07,0.03-0.09c-0.02-0.03-0.03-0.06-0.03-0.09c0-0.14,0.02-0.23,0.05-0.25c0.04-0.03,0.07-0.07,0.11-0.12
					c0.04-0.05,0.17-0.13,0.41-0.24s0.51-0.11,0.81-0.03c0.3,0.09,0.52,0.23,0.65,0.42c0.13,0.2,0.22,0.44,0.25,0.74
					c-0.02,0.12-0.02,0.24,0,0.33c0.02,0.1,0.03,0.19,0.03,0.28c-0.02,0.05-0.03,0.17-0.03,0.36c0,0.19,0.01,0.3,0.03,0.33
					c0.04,0.09,0.04,0.19,0.01,0.31c-0.03,0.12-0.07,0.4-0.12,0.86c0.14,0.58,0.2,0.98,0.17,1.18c-0.03,0.2-0.04,0.33-0.04,0.39
					c0,0.09-0.02,0.19-0.07,0.29c-0.04,0.11-0.06,0.19-0.04,0.24c0.09,0.11,0.11,0.19,0.05,0.24c-0.05,0.05-0.07,0.12-0.05,0.19
					c0.04,0.25,0.07,0.46,0.09,0.64c0.03,0.18,0,0.35-0.09,0.53v0.58c0,0.11,0.02,0.21,0.05,0.31c0.04,0.1,0.05,0.2,0.05,0.31
					s0,0.21-0.01,0.32c-0.01,0.11-0.03,0.2-0.07,0.29c-0.02,0.02-0.02,0.07-0.01,0.15c0.01,0.08,0.03,0.15,0.07,0.2L50.73,148.44z"
					/>
				<path class="st7" d="M58.49,142.59c-0.07-0.07-0.11-0.19-0.12-0.34s0-0.28,0.01-0.37c0.04-0.18,0.05-0.32,0.05-0.42
					c0-0.05-0.01-0.11-0.04-0.16c-0.03-0.05-0.04-0.11-0.04-0.16c0-0.09,0.02-0.16,0.07-0.21c0.04-0.05,0.07-0.11,0.07-0.16
					c0-0.04,0-0.09,0.01-0.17c0.01-0.08,0.04-0.16,0.11-0.24c0.06-0.08,0.16-0.15,0.29-0.21c0.13-0.06,0.31-0.09,0.54-0.09
					c0.09,0,0.16,0,0.23,0.01s0.13,0.01,0.2,0.01c0.04,0,0.11,0.03,0.21,0.08c0.11,0.05,0.23,0.12,0.37,0.21l0.19,0.27
					c0.04,0.07,0.07,0.16,0.11,0.27c0.04,0.11,0.05,0.2,0.05,0.29s-0.02,0.15-0.05,0.19c-0.04,0.04-0.05,0.1-0.05,0.19
					c0.02,0.14,0.03,0.29,0.03,0.44c0,0.15,0,0.3,0,0.44c0,0.53,0.02,0.99,0.05,1.37c0.04,0.38,0.05,0.83,0.05,1.34
					c0,0.09-0.02,0.19-0.07,0.29c-0.04,0.11-0.07,0.22-0.07,0.35c0,0.09,0.02,0.17,0.05,0.25c0.04,0.08,0.05,0.15,0.05,0.2
					c0,0.07-0.02,0.16-0.07,0.25c-0.04,0.1-0.07,0.22-0.07,0.36c0,0.18,0.02,0.31,0.07,0.38c0.04,0.08,0.07,0.15,0.07,0.2
					c0,0.09-0.02,0.17-0.05,0.25c-0.04,0.08-0.05,0.18-0.05,0.3c0,0.11,0.02,0.2,0.05,0.28c0.04,0.08,0.05,0.14,0.05,0.17
					c0,0.18-0.03,0.33-0.09,0.45c-0.06,0.12-0.09,0.23-0.09,0.32c0,0.05,0,0.11,0.01,0.16c0.01,0.05,0.01,0.1,0.01,0.13
					c0,0.14,0.01,0.32,0.03,0.53s0.03,0.39,0.03,0.53c0,0.07,0,0.16-0.01,0.27c-0.01,0.11-0.01,0.2-0.01,0.29
					c0,0.3,0.01,0.61,0.04,0.93c0.03,0.32,0.12,0.48,0.28,0.48c0.12,0,0.25,0.02,0.37,0.05c0.12,0.04,0.22,0.05,0.29,0.05
					c0.12,0,0.21-0.02,0.27-0.05c0.05-0.04,0.14-0.05,0.27-0.05c0.11,0,0.21-0.02,0.31-0.07c0.1-0.04,0.2-0.07,0.31-0.07
					c0.12,0,0.24,0.03,0.35,0.08c0.11,0.05,0.24,0.08,0.4,0.08c0.21,0,0.36,0,0.45-0.01c0.09-0.01,0.2-0.01,0.35-0.01
					c0.14,0,0.27,0.01,0.37,0.03c0.11,0.02,0.26,0.03,0.45,0.03c0.14,0,0.27-0.03,0.37-0.09c0.11-0.06,0.21-0.09,0.32-0.09
					c0.05,0,0.1,0.01,0.15,0.04c0.04,0.03,0.09,0.04,0.15,0.04c0.04,0,0.08-0.01,0.13-0.03c0.05-0.02,0.11-0.03,0.16-0.03
					s0.1,0.03,0.13,0.08c0.04,0,0.1-0.01,0.19-0.03c0.09-0.02,0.16-0.02,0.21,0c0.05,0.04,0.12,0.04,0.2,0
					c0.08-0.04,0.16-0.05,0.25-0.05c0.04,0,0.08,0,0.13,0.01s0.1,0.01,0.13,0.01c0.07,0,0.13,0,0.19-0.01s0.11-0.01,0.16-0.01
					c0.18,0,0.32,0.04,0.43,0.13c0.09-0.04,0.17-0.07,0.24-0.09s0.14-0.04,0.21-0.04c0.14,0,0.26,0.02,0.35,0.05
					c0.09,0.04,0.2,0.07,0.35,0.11c0.14,0.04,0.27,0.15,0.37,0.33c0.11,0.19,0.15,0.41,0.13,0.68c-0.02,0.21-0.11,0.42-0.28,0.64
					c-0.17,0.21-0.43,0.32-0.78,0.32c-0.14,0-0.28-0.01-0.41-0.04c-0.13-0.03-0.28-0.04-0.44-0.04h-1.28
					c-0.11,0-0.21-0.01-0.32-0.03c-0.11-0.02-0.26-0.04-0.45-0.05c-0.14,0.07-0.3,0.11-0.48,0.11c-0.18,0-0.35,0-0.5,0
					c-0.11,0-0.21,0-0.32-0.01c-0.11-0.01-0.2-0.01-0.29-0.01c-0.09,0-0.18,0-0.28,0.01c-0.1,0.01-0.19,0.01-0.28,0.01
					c-0.14,0-0.27,0-0.37-0.01c-0.11-0.01-0.23-0.01-0.37-0.01c-0.11,0-0.2,0-0.29-0.01c-0.09-0.01-0.2-0.01-0.35-0.01
					c-0.09,0-0.17,0-0.24-0.01s-0.14-0.01-0.21-0.01h-0.48c-0.05,0.05-0.1,0.08-0.13,0.08c-0.14,0-0.29,0.02-0.44,0.05
					c-0.15,0.04-0.31,0.05-0.49,0.05c-0.16,0-0.37-0.02-0.64-0.07s-0.44-0.11-0.53-0.2c-0.37,0.05-0.63-0.03-0.77-0.25
					c-0.14-0.22-0.21-0.45-0.21-0.68c0-0.05,0-0.11,0-0.16c0-0.05,0.01-0.12,0.03-0.21c0-0.07,0-0.14-0.01-0.21
					c-0.01-0.07-0.01-0.14-0.01-0.21c0-0.14,0-0.25-0.01-0.33c-0.01-0.08-0.01-0.16-0.01-0.25c-0.02-0.09,0.01-0.25,0.08-0.49
					c0.07-0.24,0.11-0.42,0.11-0.54c0-0.05,0-0.11-0.01-0.17c-0.01-0.06-0.01-0.13-0.01-0.2c0.04-0.12,0.05-0.26,0.05-0.4
					c0-0.14,0.01-0.27,0.03-0.4c0-0.07-0.02-0.14-0.05-0.2c-0.04-0.06-0.05-0.13-0.05-0.2c0-0.04,0.01-0.12,0.03-0.25
					c0.02-0.13,0.03-0.22,0.03-0.25c0-0.16-0.03-0.36-0.08-0.6c-0.05-0.24-0.08-0.49-0.08-0.76c0-0.11,0.02-0.25,0.07-0.42
					c0.04-0.18,0.07-0.31,0.07-0.4c0-0.07,0-0.15-0.01-0.23c-0.01-0.08-0.01-0.16-0.01-0.23c0-0.07-0.02-0.15-0.05-0.25
					c-0.04-0.1-0.05-0.17-0.05-0.23c0-0.04,0.03-0.08,0.08-0.15c0.05-0.06,0.08-0.13,0.08-0.2c0-0.14-0.03-0.24-0.08-0.31
					c-0.05-0.06-0.08-0.12-0.08-0.17c0-0.04,0.02-0.07,0.07-0.11c0.04-0.04,0.07-0.07,0.07-0.11s-0.01-0.08-0.04-0.12
					c-0.03-0.04-0.05-0.09-0.07-0.15c0-0.04,0.01-0.08,0.04-0.13c0.03-0.05,0.05-0.11,0.07-0.16c0.02-0.12,0-0.32-0.07-0.6
					C58.47,143.34,58.45,143,58.49,142.59z M72.86,138.47c0.21,0.04,0.38,0.1,0.49,0.2c0.12,0.1,0.23,0.18,0.36,0.25
					c0.04,0.02,0.08,0.07,0.12,0.15c0.04,0.08,0.07,0.16,0.07,0.25c0,0.07-0.01,0.14-0.04,0.2c-0.03,0.06-0.04,0.13-0.04,0.2
					c0,0.14,0.01,0.28,0.04,0.41s0.04,0.24,0.04,0.33c0,0.04-0.01,0.08-0.03,0.13c-0.02,0.05-0.03,0.12-0.03,0.21
					c0,0.07,0,0.15-0.01,0.23c-0.01,0.08-0.01,0.16-0.01,0.25c0,0.07-0.01,0.13-0.03,0.19c-0.02,0.05-0.03,0.12-0.03,0.21
					c0,0.05,0.01,0.11,0.03,0.16c0.02,0.05,0.03,0.12,0.03,0.19c0,0.09,0,0.17-0.01,0.25c-0.01,0.08-0.01,0.15-0.01,0.2
					c0,0.14,0,0.29,0.01,0.44c0.01,0.15,0.01,0.32,0.01,0.52c0,0.05,0,0.13-0.01,0.24c-0.01,0.11-0.01,0.2-0.01,0.29
					c0,0.16-0.04,0.28-0.13,0.37c0.09,0.11,0.13,0.21,0.13,0.32c0,0.12,0,0.26,0.01,0.4c0.01,0.14,0.01,0.25,0.01,0.32
					c0,0.04-0.02,0.08-0.05,0.13c-0.04,0.05-0.05,0.1-0.05,0.13c0,0.05,0.02,0.1,0.05,0.15c0.04,0.04,0.05,0.08,0.05,0.12
					c0,0.02-0.02,0.04-0.05,0.05c-0.04,0.02-0.05,0.04-0.05,0.08s0.01,0.08,0.04,0.12c0.03,0.04,0.04,0.08,0.04,0.12
					c0,0.14,0,0.25,0,0.32c0,0.07,0.01,0.17,0.03,0.29l-0.05,1.04c0,0.04,0,0.1-0.01,0.19c-0.01,0.09-0.01,0.14-0.01,0.16
					c0,0.07,0,0.14-0.01,0.21c-0.01,0.07-0.01,0.14-0.01,0.21c0,0.05,0.01,0.11,0.03,0.17c0.02,0.06,0.03,0.12,0.03,0.17
					c0,0.04-0.01,0.08-0.03,0.13c-0.02,0.05-0.03,0.11-0.03,0.16c0,0.04,0,0.1,0.01,0.19c0.01,0.09,0.01,0.18,0.01,0.28
					s0,0.19,0.01,0.27c0.01,0.08,0.01,0.13,0.01,0.15c0,0.05,0,0.17,0,0.35s0,0.37,0.01,0.57c0.01,0.2,0.02,0.4,0.03,0.6
					c0.01,0.2,0.01,0.33,0.01,0.4c0,0.09-0.02,0.21-0.05,0.37c-0.04,0.16-0.05,0.31-0.05,0.45c0,0.04,0.01,0.08,0.03,0.12
					s0.03,0.08,0.03,0.12c0,0.14,0,0.27-0.01,0.4s-0.01,0.24-0.01,0.35c0,0.04-0.02,0.08-0.05,0.12c-0.04,0.04-0.05,0.08-0.05,0.12
					c0,0.05,0.02,0.13,0.07,0.24c0.04,0.11,0.07,0.2,0.07,0.27c0,0.04,0,0.08,0,0.12s-0.01,0.08-0.03,0.12l0.03,0.21l-0.05,0.58
					c-0.02,0.11,0,0.2,0.04,0.29c0.04,0.09,0.07,0.17,0.07,0.24c0,0.05,0,0.12-0.01,0.2c-0.01,0.08-0.01,0.17-0.01,0.28
					c0,0.07,0,0.13,0.01,0.19c0.01,0.05,0.01,0.11,0.01,0.16c0,0.16-0.05,0.28-0.15,0.37c-0.1,0.09-0.19,0.16-0.28,0.21
					c-0.34,0.19-0.61,0.29-0.82,0.29c-0.18,0-0.36-0.03-0.54-0.08c-0.19-0.05-0.31-0.14-0.36-0.27c-0.04-0.05-0.08-0.15-0.15-0.29
					s-0.08-0.29-0.07-0.45c0-0.04,0-0.07-0.01-0.09c-0.01-0.03-0.01-0.05-0.01-0.07c0-0.02,0-0.06,0.01-0.12
					c0.01-0.06,0.01-0.13,0.01-0.2s0.01-0.14,0.03-0.2c0.02-0.06,0.03-0.12,0.03-0.17c0-0.07-0.01-0.11-0.03-0.13l0.03-0.72
					l-0.03-0.74c0-0.05-0.01-0.15-0.03-0.31c-0.02-0.15-0.03-0.28-0.03-0.38c0-0.12,0.03-0.23,0.08-0.33
					c0.05-0.1,0.08-0.18,0.08-0.25c0-0.07-0.03-0.13-0.08-0.19c-0.02-0.14-0.03-0.28-0.04-0.42c-0.01-0.14-0.01-0.27-0.01-0.37
					c0-0.05,0-0.18-0.01-0.38c-0.01-0.2-0.02-0.42-0.04-0.65c-0.02-0.23-0.03-0.44-0.04-0.64c-0.01-0.19-0.01-0.31-0.01-0.34
					c0-0.02,0-0.08,0.01-0.17c0.01-0.1,0.02-0.21,0.03-0.35s0.02-0.27,0.04-0.42c0.02-0.15,0.04-0.29,0.08-0.41
					c0-0.09-0.01-0.17-0.04-0.25c-0.03-0.08-0.04-0.16-0.04-0.25l0.03-0.66c0-0.07,0.02-0.17,0.07-0.31
					c0.04-0.13,0.07-0.3,0.07-0.49c0-0.12-0.01-0.25-0.03-0.37c-0.02-0.12-0.05-0.2-0.11-0.24c0.02-0.04,0.04-0.1,0.07-0.19
					c0.03-0.09,0.04-0.17,0.04-0.24c-0.07-0.07-0.11-0.13-0.11-0.19c0-0.04,0.01-0.09,0.04-0.17c0.03-0.08,0.04-0.16,0.04-0.25
					c-0.05-0.09-0.06-0.19-0.01-0.29c0.04-0.11,0.06-0.21,0.04-0.32c-0.04-0.09-0.06-0.16-0.08-0.21c-0.02-0.05-0.03-0.14-0.03-0.27
					c0.02-0.12,0.03-0.28,0.03-0.46c0-0.19,0-0.32,0-0.41c0-0.07,0-0.16-0.01-0.25c-0.01-0.1-0.01-0.19-0.01-0.28
					s0.03-0.18,0.08-0.27c0.05-0.09,0.08-0.18,0.08-0.27c0-0.14-0.02-0.24-0.05-0.31c-0.04-0.06-0.05-0.15-0.05-0.28
					c0-0.21,0.01-0.39,0.03-0.53c0.02-0.14,0.03-0.26,0.03-0.34c0-0.05-0.03-0.18-0.08-0.37c-0.05-0.19-0.08-0.35-0.08-0.45
					c0-0.04,0.02-0.08,0.05-0.15c0.04-0.06,0.05-0.12,0.05-0.17c0-0.07-0.01-0.14-0.03-0.2c-0.02-0.06-0.03-0.13-0.03-0.2
					c0-0.25,0.15-0.43,0.46-0.54C72.23,138.48,72.54,138.44,72.86,138.47z M75.57,149.23c-0.2-0.02-0.42-0.11-0.68-0.28
					c-0.26-0.17-0.4-0.38-0.44-0.62c-0.05-0.11-0.1-0.22-0.15-0.35c-0.04-0.12-0.09-0.27-0.15-0.45l0.08-0.35
					c0-0.27,0.03-0.5,0.09-0.72c0.06-0.21,0.17-0.42,0.33-0.61c0.09-0.09,0.24-0.21,0.46-0.36c0.22-0.15,0.48-0.28,0.78-0.38
					c0.34-0.04,0.6-0.04,0.8,0c0.23,0.04,0.44,0.11,0.62,0.23s0.35,0.26,0.49,0.44s0.25,0.36,0.33,0.54
					c0.08,0.19,0.12,0.36,0.12,0.52c0,0.09,0,0.24,0.01,0.46s0,0.38-0.01,0.46s-0.05,0.16-0.09,0.23c-0.04,0.06-0.09,0.16-0.15,0.28
					c-0.12,0.28-0.27,0.49-0.45,0.62c-0.18,0.13-0.35,0.23-0.5,0.31c-0.16,0.07-0.35,0.1-0.58,0.09
					C76.27,149.29,75.96,149.27,75.57,149.23z"/>
				<path class="st7" d="M91.3,152.77c-0.27,0-0.48,0-0.64-0.01c-0.16-0.01-0.28-0.01-0.36-0.01c-0.08,0-0.13,0-0.15,0
					s-0.04,0-0.05,0c-0.19,0-0.38,0-0.54,0c-0.17,0-0.32,0.02-0.46,0.05c-0.12,0.04-0.22,0.02-0.29-0.05
					c-0.07-0.07-0.14-0.07-0.21,0c-0.09,0.12-0.16,0.16-0.21,0.12s-0.12-0.08-0.21-0.12c-0.05-0.02-0.12-0.02-0.19-0.01
					c-0.07,0.01-0.13,0.01-0.19,0.01h-2.28c-0.14,0-0.27,0-0.38,0c-0.12,0-0.24-0.03-0.36-0.08c-0.34,0.07-0.58,0.11-0.74,0.11
					c-0.14,0.02-0.27,0.02-0.4,0.01c-0.12-0.01-0.26-0.01-0.4-0.01c-0.12-0.02-0.26-0.02-0.4,0c-0.14,0.02-0.28,0.02-0.43,0
					c-0.46,0-0.79-0.09-0.98-0.27s-0.29-0.39-0.29-0.64c0-0.14,0.02-0.27,0.05-0.37c0.04-0.11,0.09-0.23,0.16-0.37
					c0.04-0.09,0.11-0.16,0.23-0.23c0.12-0.06,0.23-0.11,0.33-0.15c0.11-0.04,0.23-0.05,0.36-0.05s0.27-0.01,0.41-0.03
					c0.02,0,0.05,0,0.11-0.01c0.05-0.01,0.1,0,0.13,0.01h1.25c0.16,0,0.27,0.03,0.32,0.08l0.27-0.11c0.04,0,0.08,0.01,0.12,0.04
					c0.04,0.03,0.08,0.03,0.12,0.01c0.07-0.04,0.14-0.06,0.21-0.08c0.07-0.02,0.15,0.01,0.24,0.08c0.04,0.02,0.07,0.03,0.11,0.04
					c0.04,0.01,0.06,0,0.08-0.04c0.09-0.07,0.19-0.09,0.31-0.05c0.11,0.04,0.23,0.04,0.36,0.03c0.14-0.04,0.28-0.03,0.41,0.01
					c0.13,0.04,0.28,0.04,0.44-0.01c0.18-0.04,0.35-0.04,0.52-0.03c0.17,0.02,0.34,0.03,0.52,0.03h0.96c0.16,0,0.32,0,0.49,0
					c0.17,0,0.33,0.01,0.49,0.03c0.14,0.04,0.29,0.04,0.45,0.01c0.16-0.03,0.33-0.04,0.5-0.04h0.96c0.09,0,0.19,0.01,0.29,0.03
					c0.11,0.02,0.2,0.01,0.29-0.03c0.09-0.05,0.16-0.06,0.23-0.03c0.06,0.04,0.16,0.04,0.31,0c0.05,0,0.13,0,0.23,0
					c0.1,0,0.21,0,0.33,0.01c0.12,0.01,0.24,0.02,0.36,0.03c0.12,0.01,0.2,0,0.25-0.01c0.07-0.02,0.16-0.04,0.27-0.05
					c0.11-0.02,0.22-0.01,0.35,0.03c0.11,0,0.21,0,0.32,0c0.11,0,0.21,0.01,0.32,0.03c0.12,0.02,0.26,0.02,0.4,0.01
					c0.14-0.01,0.28-0.01,0.43-0.01h3.45c0.11,0,0.2,0,0.29,0.01c0.09,0.01,0.18,0.03,0.27,0.07c0.28,0.14,0.45,0.39,0.5,0.74
					c0.02,0.12,0.02,0.28,0.01,0.46c-0.01,0.19-0.09,0.32-0.25,0.41c0.11,0.21,0.08,0.33-0.09,0.36s-0.31,0.04-0.41,0.04
					c-0.12,0-0.33,0-0.62-0.01c-0.29-0.01-0.47,0-0.54,0.04c-0.12,0.02-0.2,0-0.24-0.04c-0.04-0.04-0.09-0.05-0.16-0.01
					c-0.09,0.02-0.22,0.03-0.4,0.03c-0.09,0.04-0.17,0.04-0.25,0s-0.16-0.04-0.25,0c-0.02,0-0.06,0-0.13,0s-0.12-0.02-0.13-0.05
					c-0.09-0.07-0.2-0.07-0.35,0c-0.11,0.07-0.22,0.07-0.35,0c-0.09-0.09-0.2-0.07-0.32,0.05c-0.07,0-0.17,0-0.31,0s-0.27,0-0.41,0
					c-0.14,0-0.27,0-0.39,0s-0.18,0-0.2,0c-0.09,0-0.18,0-0.27,0c-0.09,0-0.15-0.03-0.19-0.08c-0.04-0.02-0.09-0.03-0.17-0.04
					c-0.08-0.01-0.14,0-0.17,0.04c-0.21,0.12-0.41,0.12-0.58,0c-0.11-0.04-0.17-0.04-0.19-0.03c-0.09,0.14-0.19,0.18-0.29,0.11
					c-0.11-0.07-0.2-0.1-0.29-0.08c-0.09,0.04-0.19,0.06-0.29,0.08s-0.2-0.02-0.29-0.11c-0.02,0-0.04-0.01-0.05-0.03
					c-0.02-0.02-0.04-0.01-0.05,0.03c-0.12,0.09-0.25,0.12-0.37,0.11s-0.25-0.02-0.37,0c-0.04,0-0.07,0-0.11-0.01
					C91.37,152.74,91.33,152.75,91.3,152.77z M98.1,148.33c-0.09-0.02-0.2-0.02-0.33-0.01c-0.13,0.01-0.24,0.01-0.33,0.01
					c-0.07,0-0.14-0.03-0.2-0.08c-0.06-0.05-0.13-0.04-0.2,0.05c-0.04,0.04-0.08,0.03-0.15-0.01c-0.06-0.04-0.11-0.05-0.15-0.01
					c-0.07,0.09-0.13,0.09-0.17,0.01c-0.04-0.08-0.11-0.11-0.2-0.09c-0.09,0.02-0.16,0.03-0.23,0.03s-0.15,0.02-0.25,0.05
					c-0.35,0.04-0.67,0.04-0.96,0c-0.28-0.04-0.6-0.04-0.96,0c-0.09,0-0.17-0.03-0.25-0.08c-0.08-0.05-0.16-0.04-0.25,0.05
					c-0.04,0.04-0.08,0.04-0.12,0.03c-0.04-0.02-0.09-0.04-0.13-0.05c-0.04-0.02-0.08-0.03-0.12-0.04
					c-0.04-0.01-0.06,0.02-0.08,0.09c0,0.04-0.02,0.05-0.07,0.05c-0.04,0-0.08-0.02-0.09-0.05c-0.27-0.12-0.52-0.12-0.77,0
					c-0.05,0.04-0.12,0.05-0.21,0.05c-0.09,0-0.16-0.02-0.21-0.05c-0.14-0.05-0.28-0.08-0.42-0.09c-0.14-0.01-0.28,0.02-0.43,0.09
					c-0.05,0.04-0.11,0.04-0.16,0c-0.05-0.04-0.08-0.04-0.08-0.03c-0.21,0.05-0.42,0.06-0.61,0.01s-0.39-0.03-0.58,0.04
					c-0.09,0.02-0.16,0.04-0.2,0.07c-0.04,0.03-0.12,0-0.23-0.07c-0.12-0.07-0.27-0.08-0.45-0.03c-0.09,0.04-0.16,0.04-0.21,0.01
					s-0.12-0.06-0.19-0.09c-0.07-0.02-0.16,0-0.27,0.05c-0.05,0.04-0.13,0.06-0.24,0.07c-0.11,0.01-0.18,0-0.21-0.01
					c-0.09-0.04-0.17-0.05-0.25-0.05s-0.16,0-0.25,0c-0.27,0-0.53,0-0.8-0.01s-0.54,0-0.82,0.01c-0.28,0.04-0.57,0.03-0.85-0.01
					c-0.28-0.04-0.57-0.05-0.85-0.01c-0.21,0-0.34-0.12-0.37-0.34c-0.02-0.09-0.05-0.17-0.11-0.25c-0.05-0.08-0.1-0.16-0.13-0.25
					c-0.02-0.11-0.02-0.22-0.01-0.35s0-0.24-0.01-0.35l0.03-0.72c0-0.07,0-0.15,0-0.24c0-0.09,0.02-0.16,0.05-0.21
					c0.05-0.14,0.08-0.27,0.08-0.4s-0.02-0.25-0.05-0.37c-0.04-0.12-0.06-0.23-0.08-0.31c-0.02-0.08-0.03-0.15-0.03-0.21
					c0-0.06,0.01-0.13,0.03-0.2c0.02-0.07,0.04-0.17,0.08-0.29c0-0.04,0-0.07-0.01-0.11c-0.01-0.04-0.01-0.07-0.01-0.11
					c0-0.09-0.02-0.17-0.05-0.25c-0.04-0.08-0.04-0.16,0-0.23c0.11-0.16,0.1-0.33-0.03-0.5c-0.05-0.11-0.04-0.26,0.03-0.45v-0.96
					c0-0.07,0-0.13-0.01-0.19c-0.01-0.05-0.01-0.11-0.01-0.16c0-0.14,0-0.29-0.01-0.44c-0.01-0.15,0.02-0.28,0.09-0.39
					c0.04-0.09,0.1-0.18,0.19-0.27c0.09-0.09,0.21-0.13,0.37-0.13c0.09,0,0.15,0,0.2-0.01c0.04-0.01,0.11-0.01,0.2-0.01
					c0.05,0,0.12,0,0.2,0s0.16,0.01,0.25,0.03c0.09,0.02,0.17,0.01,0.24-0.01s0.1-0.04,0.08-0.04c0.09,0.04,0.18,0.04,0.27,0
					c0.09-0.04,0.18-0.04,0.27,0c0.21,0.07,0.42,0.07,0.61,0c0.07-0.04,0.15-0.04,0.24,0c0.09,0.04,0.15,0.06,0.2,0.08
					c0.04,0.02,0.11,0,0.2-0.05c0.04-0.04,0.1-0.05,0.19-0.05c0.09,0,0.17,0.02,0.24,0.05c0.19,0.05,0.38,0.07,0.56,0.04
					c0.18-0.03,0.36-0.05,0.56-0.07c0.04,0,0.08,0,0.12,0c0.04,0,0.08,0.01,0.12,0.03c0.07,0.04,0.14,0.05,0.21,0.04
					s0.15-0.02,0.24-0.04c0.09-0.02,0.17-0.03,0.25-0.04c0.08-0.01,0.16,0,0.25,0.04c0.18,0.07,0.39,0.09,0.62,0.07
					c0.24-0.03,0.43-0.06,0.57-0.09c0.27-0.07,0.55-0.07,0.86,0c0.31,0.07,0.62,0.11,0.94,0.11h0.69l1.12-0.05
					c0.05,0,0.11,0,0.17,0.01s0.12,0.01,0.17,0.01c0.02,0,0.04-0.01,0.08-0.04c0.04-0.03,0.07-0.04,0.11-0.04
					c0.11,0,0.17,0.01,0.19,0.03c0.04,0.04,0.08,0.05,0.15,0.05c0.06,0,0.12-0.01,0.17-0.03c0.23-0.07,0.4-0.07,0.5,0
					c0,0.02,0.01,0.03,0.03,0.03h0.05h0.08c0.18-0.05,0.35-0.08,0.53-0.07s0.35,0.01,0.53,0.01c0.16,0,0.31,0,0.47-0.01
					c0.15-0.01,0.31,0,0.46,0.04c0.07,0.02,0.22,0.03,0.45,0.03c0.23,0,0.39,0,0.48,0c0.41,0.04,0.61,0.29,0.61,0.77
					c0.04,0.18,0.06,0.32,0.08,0.44c0.02,0.12,0.01,0.27-0.03,0.46c-0.02,0.05-0.02,0.11,0,0.17c0.02,0.06,0.03,0.11,0.03,0.15
					c0.02,0.04,0.04,0.08,0.05,0.13c0.02,0.05,0.03,0.1,0.03,0.13c-0.05,0.21-0.08,0.41-0.09,0.6c-0.01,0.19,0.02,0.38,0.09,0.57
					c0.02,0.09,0.01,0.18-0.03,0.27c-0.04,0.09-0.04,0.18-0.03,0.27c0.04,0.09,0.03,0.19-0.01,0.29c-0.04,0.11-0.05,0.2-0.01,0.29
					c0.07,0.2,0.07,0.36,0,0.5c0,0.02,0.01,0.04,0.03,0.07c0.02,0.03,0.01,0.06-0.03,0.09c-0.02,0.14-0.01,0.27,0.01,0.39
					c0.03,0.12,0.02,0.25-0.01,0.41c-0.02,0.05-0.03,0.17-0.03,0.36c0,0.19,0,0.38,0,0.58c0,0.2,0,0.39,0,0.57s-0.01,0.29-0.03,0.34
					c-0.04,0.3-0.11,0.52-0.23,0.66c-0.12,0.14-0.36,0.21-0.73,0.21H98.1z M97.17,142.33c0-0.16,0-0.3-0.01-0.42
					c-0.01-0.12-0.01-0.24-0.01-0.35c-0.18,0-0.42-0.01-0.72-0.03c-0.3-0.02-0.58-0.01-0.82,0.03c-0.04,0.02-0.12,0.03-0.24,0.03
					s-0.2,0-0.24,0c-0.05-0.04-0.12-0.05-0.19-0.05c-0.07,0-0.13-0.01-0.19-0.03c-0.18,0.04-0.32,0.04-0.42,0
					c-0.11-0.04-0.25-0.04-0.43,0c-0.09,0-0.19,0-0.29,0.01c-0.11,0.01-0.18,0-0.21-0.04s-0.08-0.04-0.15-0.01s-0.13,0.04-0.2,0.04
					c-0.09-0.02-0.18-0.02-0.27-0.01c-0.09,0.01-0.18,0.01-0.27,0.01c-0.27,0-0.54,0-0.81,0c-0.27,0-0.54-0.01-0.81-0.03
					c-0.12,0-0.23,0.01-0.32,0.04c-0.09,0.03-0.18,0.06-0.27,0.09c-0.09-0.02-0.21-0.03-0.36-0.04c-0.15-0.01-0.31-0.01-0.49-0.01
					c-0.16-0.09-0.34-0.09-0.53,0c-0.09-0.04-0.2-0.04-0.33-0.01s-0.25,0.03-0.36,0.01c-0.14-0.04-0.28-0.05-0.42-0.05
					c-0.14,0-0.28,0-0.43,0c-0.09,0-0.17,0-0.24-0.01c-0.07-0.01-0.15,0-0.24,0.04c-0.09,0.04-0.17,0.04-0.24,0.03
					c-0.07-0.02-0.16-0.02-0.27,0h-0.37c-0.07,0-0.15,0-0.24,0.01c-0.09,0.01-0.16,0-0.21-0.04c-0.05,0.02-0.11,0.03-0.16,0.03
					h-0.21c-0.02,0.05-0.03,0.12-0.03,0.2c0,0.08-0.01,0.14-0.03,0.17c0.04,0.09,0.04,0.17,0.01,0.24
					c-0.03,0.07-0.02,0.15,0.01,0.24c0.07,0.18,0.07,0.35,0,0.53c0.07,0.14,0.08,0.31,0.03,0.5s-0.06,0.39-0.03,0.58
					c-0.05,0.07-0.04,0.19,0.03,0.35c0.04,0.02,0.04,0.04,0.01,0.08c-0.03,0.04-0.05,0.07-0.07,0.11c-0.04,0.09-0.04,0.15-0.01,0.19
					s0.04,0.09,0.04,0.16c0.04,0.09,0.04,0.17,0.01,0.24c-0.03,0.07-0.03,0.16-0.01,0.27c-0.02,0.09-0.02,0.18-0.01,0.27
					s0.01,0.18,0.01,0.27v0.21c0,0.07,0,0.12,0.01,0.13c0.01,0.02,0.06,0.03,0.15,0.03c0.04-0.04,0.1-0.05,0.19-0.05
					c0.09,0,0.15,0,0.19,0c0.11,0.07,0.21,0.08,0.32,0.03c0.04-0.04,0.09-0.04,0.16-0.03c0.07,0.02,0.14,0.04,0.21,0.08
					c0.34-0.07,0.61-0.1,0.82-0.09c0.21,0.01,0.47,0.06,0.77,0.15c0.11-0.05,0.28-0.08,0.52-0.09c0.24-0.01,0.49-0.01,0.74,0
					c0.26,0.01,0.5,0.02,0.72,0.03c0.22,0.01,0.37,0.01,0.44,0.01c0.09-0.02,0.19-0.02,0.32-0.01c0.12,0.01,0.23,0,0.32-0.01
					c0.09-0.04,0.17-0.06,0.24-0.07s0.12,0,0.13,0.01c0.12,0.05,0.23,0.08,0.32,0.07c0.09-0.01,0.18-0.03,0.27-0.07
					c0.09-0.02,0.19-0.01,0.29,0.01c0.11,0.03,0.2,0.06,0.29,0.09c0.11,0,0.23-0.02,0.37-0.05c0.21,0.02,0.46,0.01,0.73-0.01
					c0.27-0.03,0.52,0,0.73,0.07c0.11-0.05,0.22-0.08,0.35-0.08s0.23,0.02,0.32,0.05c0.14,0.04,0.26,0.04,0.35,0.01
					c0.09-0.03,0.18-0.06,0.27-0.09c0.12-0.02,0.23-0.01,0.31,0.03c0.08,0.04,0.17,0.04,0.28,0c0.05-0.04,0.15-0.04,0.28-0.01
					s0.24,0.04,0.33,0.04c0.16,0,0.24-0.04,0.24-0.11c0-0.11-0.01-0.19-0.03-0.24c-0.02-0.05-0.02-0.1-0.01-0.13
					c0.01-0.04,0.01-0.07,0.01-0.11c0-0.09,0-0.2,0-0.34s0.02-0.26,0.05-0.35c0-0.05,0-0.16-0.01-0.31
					c-0.01-0.15-0.01-0.31-0.01-0.49s0-0.35,0-0.53s-0.01-0.31-0.03-0.4c-0.02-0.05-0.01-0.11,0.03-0.16
					c0.04-0.05,0.04-0.1,0.03-0.13c-0.04-0.12-0.06-0.24-0.08-0.36C97.07,142.54,97.1,142.43,97.17,142.33z M92.41,154.31
					c0.16,0.05,0.31,0.14,0.44,0.27c0.13,0.12,0.25,0.27,0.36,0.43c0.11,0.16,0.19,0.33,0.24,0.5c0.05,0.18,0.07,0.34,0.05,0.48
					c-0.02,0.12-0.04,0.24-0.07,0.33c-0.03,0.1-0.09,0.21-0.2,0.33c-0.05,0.23-0.19,0.45-0.4,0.66c-0.25,0.25-0.56,0.4-0.93,0.45
					c-0.37,0.05-0.71,0.06-1.01,0.03c-0.11-0.02-0.21-0.06-0.32-0.13c-0.11-0.07-0.22-0.13-0.35-0.19c-0.18,0-0.32-0.04-0.44-0.12
					c-0.12-0.08-0.23-0.18-0.33-0.31c-0.3-0.34-0.42-0.74-0.35-1.22c-0.04-0.05-0.04-0.11-0.03-0.17c0.02-0.06,0.04-0.12,0.05-0.17
					c0.04-0.09,0.07-0.19,0.11-0.29s0.06-0.2,0.08-0.29c0.04-0.21,0.12-0.37,0.25-0.48s0.3-0.18,0.49-0.21
					c0.23-0.25,0.46-0.41,0.69-0.48c0.23-0.07,0.45-0.08,0.66-0.03c0.21,0.05,0.4,0.14,0.57,0.25
					C92.17,154.06,92.31,154.18,92.41,154.31z"/>
			</g>
			<g>
				<path class="st6" d="M33,173.59c-0.12,0-0.23-0.03-0.33-0.09c-0.1-0.06-0.15-0.16-0.15-0.28v-8.43c0-0.13,0.05-0.22,0.15-0.28
					c0.1-0.06,0.21-0.09,0.33-0.09h4.47c0.13,0,0.23,0.05,0.28,0.15c0.05,0.1,0.08,0.21,0.08,0.31c0,0.13-0.03,0.24-0.09,0.34
					c-0.06,0.1-0.15,0.15-0.27,0.15h-3.9v3.19h1.96c0.12,0,0.21,0.05,0.27,0.14c0.06,0.09,0.09,0.2,0.09,0.31
					c0,0.1-0.03,0.2-0.08,0.29c-0.05,0.09-0.15,0.14-0.28,0.14h-1.96v3.2h3.9c0.12,0,0.21,0.05,0.27,0.14
					c0.06,0.1,0.09,0.21,0.09,0.35c0,0.11-0.03,0.21-0.08,0.31c-0.05,0.1-0.15,0.15-0.28,0.15H33z"/>
				<path class="st6" d="M40.6,173.59c-0.15,0-0.27-0.04-0.37-0.12c-0.1-0.08-0.14-0.17-0.14-0.26V168c0-0.11,0.05-0.2,0.14-0.26
					c0.1-0.07,0.22-0.1,0.37-0.1c0.13,0,0.25,0.03,0.34,0.1c0.09,0.07,0.14,0.15,0.14,0.26v0.51c0.13-0.24,0.34-0.46,0.63-0.66
					c0.28-0.2,0.64-0.3,1.06-0.3c0.4,0,0.77,0.11,1.11,0.33c0.33,0.22,0.6,0.51,0.8,0.87c0.2,0.36,0.3,0.76,0.3,1.21v3.24
					c0,0.13-0.05,0.22-0.16,0.28c-0.11,0.06-0.23,0.09-0.36,0.09c-0.13,0-0.24-0.03-0.35-0.09c-0.11-0.06-0.16-0.16-0.16-0.28v-3.24
					c0-0.24-0.06-0.48-0.19-0.7c-0.13-0.23-0.3-0.41-0.52-0.55s-0.46-0.21-0.72-0.21c-0.23,0-0.44,0.06-0.65,0.18
					c-0.21,0.12-0.38,0.29-0.52,0.5c-0.13,0.21-0.2,0.47-0.2,0.79v3.24c0,0.09-0.05,0.18-0.16,0.26
					C40.87,173.55,40.75,173.59,40.6,173.59z"/>
				<path class="st6" d="M49.83,176.46c-0.49,0-0.94-0.07-1.33-0.21c-0.39-0.14-0.71-0.33-0.94-0.59c-0.23-0.25-0.35-0.55-0.35-0.9
					c0-0.35,0.1-0.64,0.31-0.86c0.21-0.22,0.44-0.39,0.71-0.51c-0.18-0.07-0.34-0.17-0.46-0.29c-0.12-0.13-0.18-0.31-0.18-0.55
					s0.06-0.42,0.18-0.56c0.12-0.14,0.27-0.26,0.45-0.37c-0.23-0.18-0.4-0.41-0.53-0.68c-0.13-0.27-0.19-0.57-0.19-0.9v-0.42
					c0-0.41,0.09-0.77,0.28-1.08c0.18-0.31,0.45-0.55,0.79-0.73c0.34-0.18,0.73-0.26,1.19-0.26c0.29,0,0.56,0.04,0.81,0.13
					c0.25,0.09,0.46,0.21,0.65,0.36c0.13-0.28,0.27-0.48,0.42-0.62s0.29-0.2,0.43-0.2c0.15,0,0.26,0.04,0.34,0.13
					c0.08,0.08,0.11,0.17,0.11,0.26c0,0.07-0.02,0.12-0.06,0.18c-0.04,0.05-0.09,0.09-0.15,0.11c-0.09,0.02-0.2,0.08-0.32,0.15
					c-0.12,0.08-0.24,0.2-0.35,0.38c0.13,0.16,0.22,0.34,0.28,0.55s0.09,0.42,0.09,0.65v0.42c0,0.39-0.1,0.75-0.29,1.07
					c-0.19,0.32-0.46,0.57-0.8,0.75c-0.34,0.18-0.74,0.27-1.18,0.27c-0.34,0-0.65-0.06-0.92-0.19c-0.08,0.05-0.16,0.11-0.23,0.17
					c-0.07,0.06-0.1,0.15-0.1,0.26c0,0.18,0.09,0.3,0.28,0.38s0.43,0.13,0.72,0.16c0.29,0.03,0.6,0.07,0.93,0.11
					s0.64,0.12,0.93,0.22c0.29,0.11,0.53,0.27,0.72,0.48c0.19,0.22,0.28,0.52,0.28,0.9c0,0.41-0.11,0.75-0.34,1.02
					c-0.23,0.27-0.53,0.48-0.91,0.61S50.3,176.46,49.83,176.46z M49.8,175.74c0.48,0,0.85-0.1,1.13-0.29
					c0.28-0.2,0.41-0.46,0.41-0.79c0-0.24-0.07-0.42-0.21-0.55c-0.14-0.13-0.33-0.23-0.55-0.29c-0.23-0.06-0.46-0.1-0.71-0.13
					c-0.25-0.02-0.47-0.04-0.67-0.07c-0.27,0.08-0.5,0.21-0.7,0.38c-0.2,0.17-0.3,0.38-0.3,0.65c0,0.33,0.15,0.59,0.44,0.79
					C48.94,175.64,49.32,175.74,49.8,175.74z M49.76,171.41c0.39,0,0.69-0.13,0.9-0.39c0.22-0.26,0.33-0.59,0.33-0.98v-0.42
					c0-0.38-0.11-0.71-0.33-0.97c-0.22-0.26-0.52-0.39-0.92-0.39s-0.7,0.13-0.91,0.39c-0.21,0.26-0.32,0.58-0.32,0.97v0.4
					c0,0.39,0.11,0.72,0.33,0.99C49.06,171.28,49.37,171.41,49.76,171.41z"/>
				<path class="st6" d="M56,173.59c-0.13,0-0.26-0.03-0.36-0.09c-0.11-0.06-0.16-0.16-0.16-0.28v-7.83h-2.04
					c-0.11,0-0.2-0.05-0.26-0.15c-0.07-0.1-0.1-0.22-0.1-0.35c0-0.12,0.03-0.23,0.09-0.33c0.06-0.1,0.15-0.15,0.28-0.15h5.13
					c0.13,0,0.22,0.05,0.28,0.15c0.06,0.1,0.09,0.21,0.09,0.33c0,0.13-0.03,0.24-0.09,0.35s-0.15,0.16-0.28,0.16h-2.04v7.83
					c0,0.13-0.05,0.22-0.16,0.28C56.25,173.56,56.13,173.59,56,173.59z"/>
				<path class="st6" d="M60.41,173.59c-0.14,0-0.26-0.04-0.36-0.12c-0.1-0.08-0.14-0.17-0.14-0.26V168c0-0.11,0.05-0.2,0.14-0.26
					c0.1-0.07,0.22-0.1,0.36-0.1c0.14,0,0.26,0.03,0.35,0.1c0.09,0.07,0.14,0.15,0.14,0.26v0.59c0.09-0.18,0.22-0.34,0.38-0.5
					c0.16-0.15,0.35-0.28,0.56-0.38c0.21-0.1,0.45-0.15,0.71-0.15h0.43c0.11,0,0.2,0.05,0.28,0.14c0.08,0.09,0.12,0.21,0.12,0.34
					c0,0.13-0.04,0.24-0.12,0.33c-0.08,0.09-0.17,0.14-0.28,0.14h-0.43c-0.27,0-0.52,0.08-0.77,0.23c-0.24,0.15-0.44,0.36-0.6,0.63
					c-0.16,0.27-0.23,0.6-0.23,0.99v2.86c0,0.09-0.05,0.18-0.16,0.26C60.68,173.55,60.56,173.59,60.41,173.59z"/>
				<path class="st6" d="M67.81,173.69c-0.54,0-1.03-0.1-1.44-0.31s-0.75-0.49-0.99-0.85S65,171.74,65,171.25v-1.32
					c0-0.43,0.12-0.82,0.35-1.18c0.23-0.36,0.53-0.65,0.91-0.87s0.79-0.33,1.24-0.33c0.44,0,0.84,0.1,1.2,0.3s0.66,0.47,0.88,0.82
					c0.22,0.34,0.33,0.74,0.33,1.19c0,0.33-0.05,0.58-0.16,0.72s-0.25,0.24-0.41,0.27c-0.17,0.03-0.34,0.05-0.53,0.05h-2.76v0.38
					c0,0.47,0.17,0.84,0.5,1.11c0.33,0.27,0.77,0.41,1.29,0.41c0.31,0,0.56-0.04,0.74-0.12c0.18-0.08,0.33-0.17,0.45-0.25
					c0.12-0.08,0.22-0.12,0.31-0.12s0.17,0.03,0.23,0.08c0.06,0.05,0.11,0.12,0.14,0.2c0.03,0.08,0.05,0.14,0.05,0.2
					c0,0.11-0.08,0.23-0.24,0.37s-0.39,0.26-0.68,0.36C68.56,173.64,68.21,173.69,67.81,173.69z M66.05,170.21h2.32
					c0.23,0,0.38-0.03,0.45-0.08c0.07-0.05,0.11-0.16,0.11-0.32c0-0.25-0.06-0.48-0.18-0.7c-0.12-0.21-0.29-0.39-0.51-0.52
					c-0.22-0.13-0.46-0.2-0.74-0.2c-0.26,0-0.5,0.06-0.72,0.18c-0.22,0.12-0.39,0.29-0.53,0.5c-0.13,0.21-0.2,0.44-0.2,0.69V170.21z
					"/>
				<path class="st6" d="M74.91,173.69c-0.54,0-1.03-0.1-1.44-0.31s-0.75-0.49-0.99-0.85s-0.36-0.79-0.36-1.28v-1.32
					c0-0.43,0.12-0.82,0.35-1.18c0.23-0.36,0.53-0.65,0.91-0.87s0.79-0.33,1.24-0.33c0.44,0,0.84,0.1,1.2,0.3s0.66,0.47,0.88,0.82
					c0.22,0.34,0.33,0.74,0.33,1.19c0,0.33-0.05,0.58-0.16,0.72s-0.25,0.24-0.41,0.27c-0.17,0.03-0.34,0.05-0.53,0.05h-2.76v0.38
					c0,0.47,0.17,0.84,0.5,1.11c0.33,0.27,0.77,0.41,1.29,0.41c0.31,0,0.56-0.04,0.74-0.12c0.18-0.08,0.33-0.17,0.45-0.25
					c0.12-0.08,0.22-0.12,0.31-0.12s0.17,0.03,0.23,0.08c0.06,0.05,0.11,0.12,0.14,0.2c0.03,0.08,0.05,0.14,0.05,0.2
					c0,0.11-0.08,0.23-0.24,0.37s-0.39,0.26-0.68,0.36C75.66,173.64,75.31,173.69,74.91,173.69z M73.15,170.21h2.32
					c0.23,0,0.38-0.03,0.45-0.08c0.07-0.05,0.11-0.16,0.11-0.32c0-0.25-0.06-0.48-0.18-0.7c-0.12-0.21-0.29-0.39-0.51-0.52
					c-0.22-0.13-0.46-0.2-0.74-0.2c-0.26,0-0.5,0.06-0.72,0.18c-0.22,0.12-0.39,0.29-0.53,0.5c-0.13,0.21-0.2,0.44-0.2,0.69V170.21z
					"/>
			</g>
		</g>
	</g>
</g>
<g id="DESIGNED_BY_FREEPIK">
</g>
</svg>
